<mxfile host="app.diagrams.net" modified="2021-08-15T08:39:37.277Z" agent="5.0 (Macintosh; Intel Mac OS X 10_15_7) AppleWebKit/537.36 (KHTML, like Gecko) Chrome/86.0.4240.193 Safari/537.36" etag="1t4bfhtmox9COfV-drnF" version="14.9.6" type="github">
  <diagram id="s6OWZ3T17XuBEupLtkQv" name="Page-1">
    <mxGraphModel dx="946" dy="536" grid="1" gridSize="10" guides="1" tooltips="1" connect="1" arrows="1" fold="1" page="1" pageScale="1" pageWidth="827" pageHeight="1169" math="0" shadow="0">
      <root>
        <mxCell id="0" />
        <mxCell id="1" parent="0" />
        <mxCell id="1WIrT3s4XPH17dbqS3jg-1" value="3" style="rounded=0;whiteSpace=wrap;html=1;fillColor=#ffe6cc;strokeColor=#d79b00;" vertex="1" parent="1">
          <mxGeometry x="170" y="150" width="50" height="50" as="geometry" />
        </mxCell>
        <mxCell id="1WIrT3s4XPH17dbqS3jg-2" value="7" style="rounded=0;whiteSpace=wrap;html=1;fillColor=#ffe6cc;strokeColor=#d79b00;" vertex="1" parent="1">
          <mxGeometry x="220" y="150" width="50" height="50" as="geometry" />
        </mxCell>
        <mxCell id="1WIrT3s4XPH17dbqS3jg-3" value="4" style="rounded=0;whiteSpace=wrap;html=1;fillColor=#ffe6cc;strokeColor=#d79b00;" vertex="1" parent="1">
          <mxGeometry x="270" y="150" width="50" height="50" as="geometry" />
        </mxCell>
        <mxCell id="1WIrT3s4XPH17dbqS3jg-4" value="2" style="rounded=0;whiteSpace=wrap;html=1;fillColor=#ffe6cc;strokeColor=#d79b00;" vertex="1" parent="1">
          <mxGeometry x="320" y="150" width="50" height="50" as="geometry" />
        </mxCell>
        <mxCell id="1WIrT3s4XPH17dbqS3jg-5" value="1" style="rounded=0;whiteSpace=wrap;html=1;fillColor=#ffe6cc;strokeColor=#d79b00;" vertex="1" parent="1">
          <mxGeometry x="370" y="150" width="50" height="50" as="geometry" />
        </mxCell>
        <mxCell id="1WIrT3s4XPH17dbqS3jg-6" value="3" style="rounded=0;whiteSpace=wrap;html=1;fillColor=#dae8fc;strokeColor=#6c8ebf;" vertex="1" parent="1">
          <mxGeometry x="170" y="240" width="50" height="50" as="geometry" />
        </mxCell>
        <mxCell id="1WIrT3s4XPH17dbqS3jg-7" value="7" style="rounded=0;whiteSpace=wrap;html=1;fillColor=#ffe6cc;strokeColor=#d79b00;" vertex="1" parent="1">
          <mxGeometry x="220" y="240" width="50" height="50" as="geometry" />
        </mxCell>
        <mxCell id="1WIrT3s4XPH17dbqS3jg-8" value="4" style="rounded=0;whiteSpace=wrap;html=1;fillColor=#ffe6cc;strokeColor=#d79b00;" vertex="1" parent="1">
          <mxGeometry x="270" y="240" width="50" height="50" as="geometry" />
        </mxCell>
        <mxCell id="1WIrT3s4XPH17dbqS3jg-9" value="2" style="rounded=0;whiteSpace=wrap;html=1;fillColor=#ffe6cc;strokeColor=#d79b00;" vertex="1" parent="1">
          <mxGeometry x="320" y="240" width="50" height="50" as="geometry" />
        </mxCell>
        <mxCell id="1WIrT3s4XPH17dbqS3jg-10" value="1" style="rounded=0;whiteSpace=wrap;html=1;fillColor=#d5e8d4;strokeColor=#82b366;" vertex="1" parent="1">
          <mxGeometry x="370" y="240" width="50" height="50" as="geometry" />
        </mxCell>
        <mxCell id="1WIrT3s4XPH17dbqS3jg-11" value="1" style="rounded=0;whiteSpace=wrap;html=1;fillColor=#ffe6cc;strokeColor=#d79b00;" vertex="1" parent="1">
          <mxGeometry x="170" y="330" width="50" height="50" as="geometry" />
        </mxCell>
        <mxCell id="1WIrT3s4XPH17dbqS3jg-12" value="7" style="rounded=0;whiteSpace=wrap;html=1;fillColor=#dae8fc;strokeColor=#6c8ebf;" vertex="1" parent="1">
          <mxGeometry x="220" y="330" width="50" height="50" as="geometry" />
        </mxCell>
        <mxCell id="1WIrT3s4XPH17dbqS3jg-13" value="4" style="rounded=0;whiteSpace=wrap;html=1;fillColor=#ffe6cc;strokeColor=#d79b00;" vertex="1" parent="1">
          <mxGeometry x="270" y="330" width="50" height="50" as="geometry" />
        </mxCell>
        <mxCell id="1WIrT3s4XPH17dbqS3jg-14" value="2" style="rounded=0;whiteSpace=wrap;html=1;fillColor=#d5e8d4;strokeColor=#82b366;" vertex="1" parent="1">
          <mxGeometry x="320" y="330" width="50" height="50" as="geometry" />
        </mxCell>
        <mxCell id="1WIrT3s4XPH17dbqS3jg-15" value="3" style="rounded=0;whiteSpace=wrap;html=1;fillColor=#ffe6cc;strokeColor=#d79b00;" vertex="1" parent="1">
          <mxGeometry x="370" y="330" width="50" height="50" as="geometry" />
        </mxCell>
        <mxCell id="1WIrT3s4XPH17dbqS3jg-16" value="1" style="rounded=0;whiteSpace=wrap;html=1;fillColor=#ffe6cc;strokeColor=#d79b00;" vertex="1" parent="1">
          <mxGeometry x="170" y="430" width="50" height="50" as="geometry" />
        </mxCell>
        <mxCell id="1WIrT3s4XPH17dbqS3jg-17" value="2" style="rounded=0;whiteSpace=wrap;html=1;fillColor=#ffe6cc;strokeColor=#d79b00;" vertex="1" parent="1">
          <mxGeometry x="220" y="430" width="50" height="50" as="geometry" />
        </mxCell>
        <mxCell id="1WIrT3s4XPH17dbqS3jg-18" value="4" style="rounded=0;whiteSpace=wrap;html=1;fillColor=#dae8fc;strokeColor=#6c8ebf;" vertex="1" parent="1">
          <mxGeometry x="270" y="430" width="50" height="50" as="geometry" />
        </mxCell>
        <mxCell id="1WIrT3s4XPH17dbqS3jg-19" value="7" style="rounded=0;whiteSpace=wrap;html=1;fillColor=#ffe6cc;strokeColor=#d79b00;" vertex="1" parent="1">
          <mxGeometry x="320" y="430" width="50" height="50" as="geometry" />
        </mxCell>
        <mxCell id="1WIrT3s4XPH17dbqS3jg-20" value="3" style="rounded=0;whiteSpace=wrap;html=1;fillColor=#d5e8d4;strokeColor=#82b366;" vertex="1" parent="1">
          <mxGeometry x="370" y="430" width="50" height="50" as="geometry" />
        </mxCell>
        <mxCell id="1WIrT3s4XPH17dbqS3jg-21" value="1" style="rounded=0;whiteSpace=wrap;html=1;fillColor=#ffe6cc;strokeColor=#d79b00;" vertex="1" parent="1">
          <mxGeometry x="170" y="530" width="50" height="50" as="geometry" />
        </mxCell>
        <mxCell id="1WIrT3s4XPH17dbqS3jg-22" value="2" style="rounded=0;whiteSpace=wrap;html=1;fillColor=#ffe6cc;strokeColor=#d79b00;" vertex="1" parent="1">
          <mxGeometry x="220" y="530" width="50" height="50" as="geometry" />
        </mxCell>
        <mxCell id="1WIrT3s4XPH17dbqS3jg-23" value="3" style="rounded=0;whiteSpace=wrap;html=1;fillColor=#ffe6cc;strokeColor=#d79b00;" vertex="1" parent="1">
          <mxGeometry x="270" y="530" width="50" height="50" as="geometry" />
        </mxCell>
        <mxCell id="1WIrT3s4XPH17dbqS3jg-24" value="7" style="rounded=0;whiteSpace=wrap;html=1;fillColor=#dae8fc;strokeColor=#6c8ebf;" vertex="1" parent="1">
          <mxGeometry x="320" y="530" width="50" height="50" as="geometry" />
        </mxCell>
        <mxCell id="1WIrT3s4XPH17dbqS3jg-25" value="4" style="rounded=0;whiteSpace=wrap;html=1;fillColor=#d5e8d4;strokeColor=#82b366;" vertex="1" parent="1">
          <mxGeometry x="370" y="530" width="50" height="50" as="geometry" />
        </mxCell>
        <mxCell id="1WIrT3s4XPH17dbqS3jg-26" value="1" style="rounded=0;whiteSpace=wrap;html=1;fillColor=#ffe6cc;strokeColor=#d79b00;" vertex="1" parent="1">
          <mxGeometry x="170" y="630" width="50" height="50" as="geometry" />
        </mxCell>
        <mxCell id="1WIrT3s4XPH17dbqS3jg-27" value="2" style="rounded=0;whiteSpace=wrap;html=1;fillColor=#ffe6cc;strokeColor=#d79b00;" vertex="1" parent="1">
          <mxGeometry x="220" y="630" width="50" height="50" as="geometry" />
        </mxCell>
        <mxCell id="1WIrT3s4XPH17dbqS3jg-28" value="3" style="rounded=0;whiteSpace=wrap;html=1;fillColor=#ffe6cc;strokeColor=#d79b00;" vertex="1" parent="1">
          <mxGeometry x="270" y="630" width="50" height="50" as="geometry" />
        </mxCell>
        <mxCell id="1WIrT3s4XPH17dbqS3jg-29" value="4" style="rounded=0;whiteSpace=wrap;html=1;fillColor=#ffe6cc;strokeColor=#d79b00;" vertex="1" parent="1">
          <mxGeometry x="320" y="630" width="50" height="50" as="geometry" />
        </mxCell>
        <mxCell id="1WIrT3s4XPH17dbqS3jg-30" value="7" style="rounded=0;whiteSpace=wrap;html=1;fillColor=#ffe6cc;strokeColor=#d79b00;" vertex="1" parent="1">
          <mxGeometry x="370" y="630" width="50" height="50" as="geometry" />
        </mxCell>
      </root>
    </mxGraphModel>
  </diagram>
</mxfile>
